PathFileType	4	(x/y/z)	S04_PSF_T12.trc
DataRate	CameraRate	NumFrames	NumMarkers	Units	OrigDataRate	OrigDataStartFrame	OrigNumFrames
240	240	8	51	mm	240	214	426
Frame#	Time	Sternum			R.Acromium			L.Acromium			Top.Head			R.ASIS			L.ASIS			R.PSIS			L.PSIS			R.Great.Tro			L.Great.Tro			R.Iliac.Crest			L.Iliac.Crest			V.Sacral			R.Thigh.Upper.Post			R.Thigh.Lower.Ant			R.Thigh.Lower.Post			R.Thigh.Upper.Ant			R.Knee.Lat			R.Knee.Med			R.Shank.Upper.Post			R.Shank.Lower.Ant			R.Shank.Lower.Post			R.Shank.Upper.Ant			R.Ankle.Lat			R.Ankle.Med			R.Heel.Upper			R.Heel.Med			R.Heel.Lat			R.Toe.Lat			R.Toe.Med			R.Toe.Tip			L.Thigh.Upper.Post			L.Thigh.Lower.Ant			L.Thigh.Lower.Post			L.Thigh.Upper.Ant			L.Knee.Lat			L.Knee.Med			L.Shank.Upper.Post			L.Shank.Lower.Ant			L.Shank.Lower.Post			L.Shank.Upper.Ant			L.Ankle.Lat			L.Ankle.Med			L.Heel.Upper			L.Heel.Med			L.Heel.Lat			L.Toe.Lat			L.Toe.Med			L.Toe.Tip			Cervical.Spine			Back			
		X1	Y1	Z1	X2	Y2	Z2	X3	Y3	Z3	X4	Y4	Z4	X5	Y5	Z5	X6	Y6	Z6	X7	Y7	Z7	X8	Y8	Z8	X9	Y9	Z9	X10	Y10	Z10	X11	Y11	Z11	X12	Y12	Z12	X13	Y13	Z13	X14	Y14	Z14	X15	Y15	Z15	X16	Y16	Z16	X17	Y17	Z17	X18	Y18	Z18	X19	Y19	Z19	X20	Y20	Z20	X21	Y21	Z21	X22	Y22	Z22	X23	Y23	Z23	X24	Y24	Z24	X25	Y25	Z25	X26	Y26	Z26	X27	Y27	Z27	X28	Y28	Z28	X29	Y29	Z29	X30	Y30	Z30	X31	Y31	Z31	X32	Y32	Z32	X33	Y33	Z33	X34	Y34	Z34	X35	Y35	Z35	X36	Y36	Z36	X37	Y37	Z37	X38	Y38	Z38	X39	Y39	Z39	X40	Y40	Z40	X41	Y41	Z41	X42	Y42	Z42	X43	Y43	Z43	X44	Y44	Z44	X45	Y45	Z45	X46	Y46	Z46	X47	Y47	Z47	X48	Y48	Z48	X49	Y49	Z49	X50	Y50	Z50	X51	Y51	Z51	

214	0.8875	-304.86	1290.4	262.77	-432.7	1513.1	445.13	-449.41	1502.6	95.876	-426.64	1839.8	256.59	-334.83	1001.8	400.56	-334.62	1018.6	150.2	-546.72	1039.3	295.81	-537.53	1041.9	215.89	-425.62	922.72	459.03	-441.71	932.45	79.636	-420.88	1093.9	441.1	-434.46	1101.5	105.51	-563.75	999.3	255.52	-415.09	662.73	437.87	-337.87	583.46	401.6	-412.43	572.91	421.38	-331.37	691.61	427.37	-385.6	505.52	407.28	-411.2	503.34	281.84	-471.34	283.44	399.36	-410.96	203.95	351.67	-476.58	214.52	380.6	-408.54	272.56	378.28	-472.93	103.32	355.38	-456.1	118.24	267.51	-542.3	75.666	300.68	-533.41	45.059	270.37	-536.43	43.307	335.48	-367.15	38.953	384.26	-329.63	39.353	264.25	-267.52	56.76	312.65	-368.91	697.25	78.444	-257.24	638	78.129	-327.1	618.12	88.497	-303.67	715.12	66.418	-269.79	543.23	92.333	-253.08	528.66	219.04	-424.1	429.24	107.99	-406.47	320.05	99.943	-456.38	358.67	113.99	-374.59	389.76	93.162	-504.16	198.75	122.41	-484.18	203.11	212.58	-579.54	205.65	174.99	-583.38	181.39	209.44	-591.92	180.17	147.79	-440.66	85.792	95.925	-398.21	78.501	206.33	-348.29	63.053	153.66	-491.82	1558.4	277.51	-565.55	1299.3	257.9
215	0.89167	-299.8	1290.5	262.69	-427.11	1513.3	445.25	-444.49	1502.9	96.025	-421.42	1840	256.68	-330.21	1001.8	400.86	-329.51	1018.8	150.46	-541.82	1039.5	295.59	-532.51	1042.1	215.68	-421.33	922.79	459	-436.29	932.76	79.579	-416.25	1094.1	441.17	-429.25	1101.8	105.5	-558.78	999.5	255.25	-412.82	662.92	437.84	-336.17	583.01	401.79	-410.83	573.05	421.5	-328.85	691.12	427.48	-384.59	505.39	407.47	-409.9	503.34	281.93	-471	283.62	399.28	-410.68	203.95	351.76	-476.38	214.7	380.46	-408.15	272.55	378.39	-472.8	103.42	355.25	-456.01	118.37	267.43	-542.3	75.834	300.55	-533.47	45.119	270.26	-536.37	43.47	335.41	-367.14	38.945	384.25	-329.57	39.287	264.22	-267.45	56.597	312.67	-362.22	697.91	78.378	-250.17	639.32	78.508	-319.97	619.02	88.545	-297.09	716.14	66.64	-262.16	544.31	92.677	-245.54	530.03	219.31	-414.31	426.99	107.75	-394.37	318.16	100.08	-445.11	355.77	113.86	-363.95	388.5	93.219	-489.37	194.62	122.39	-469.68	199.58	212.59	-565.07	199.83	174.82	-568.35	175.52	209.3	-576.78	174.03	147.67	-423.17	83.126	96.159	-380.68	77.052	206.67	-330.38	62.663	154.1	-486.51	1558.6	277.77	-560.42	1299.5	258.27
216	0.89583	-294.75	1290.6	262.6	-421.52	1513.4	445.35	-439.55	1503	96.165	-416.2	1840.1	256.76	-325.57	1001.7	401.14	-324.41	1019	150.7	-536.92	1039.6	295.39	-527.5	1042.3	215.49	-417.03	922.83	458.97	-430.9	933	79.527	-411.57	1094.2	441.24	-424.07	1102	105.48	-553.82	999.65	255	-410.54	663.09	437.81	-334.45	582.56	401.97	-409.21	573.19	421.61	-326.33	690.61	427.57	-383.56	505.26	407.65	-408.58	503.34	282	-470.66	283.81	399.2	-410.39	203.94	351.84	-476.16	214.88	380.32	-407.76	272.53	378.5	-472.68	103.53	355.13	-455.91	118.5	267.35	-542.3	76	300.42	-533.5	45.18	270.15	-536.31	43.633	335.34	-367.12	38.936	384.24	-329.53	39.22	264.19	-267.38	56.432	312.69	-355.63	698.5	78.349	-243.25	640.55	78.889	-312.96	619.84	88.622	-290.61	717.06	66.875	-254.64	545.31	93.019	-238.11	531.32	219.58	-404.55	424.68	107.54	-382.27	316.25	100.21	-433.83	352.82	113.74	-353.35	387.22	93.271	-474.49	190.52	122.34	-455.07	196.04	212.56	-550.46	194.01	174.65	-553.16	169.66	209.14	-561.49	167.92	147.55	-405.63	80.548	96.325	-363.1	75.659	206.93	-312.46	62.355	154.44	-481.2	1558.8	278.01	-555.28	1299.7	258.61
217	0.9	-289.71	1290.6	262.51	-415.92	1513.5	445.44	-434.61	1503.2	96.293	-410.99	1840.2	256.85	-320.93	1001.6	401.41	-319.32	1019.2	150.93	-532.02	1039.7	295.18	-522.5	1042.4	215.3	-412.71	922.84	458.93	-425.55	933.19	79.48	-406.86	1094.2	441.3	-418.9	1102.2	105.47	-548.87	999.76	254.77	-408.23	663.26	437.77	-332.71	582.1	402.13	-407.58	573.32	421.72	-323.79	690.1	427.63	-382.53	505.13	407.82	-407.26	503.34	282.07	-470.3	284	399.12	-410.11	203.94	351.92	-475.94	215.05	380.18	-407.37	272.52	378.59	-472.56	103.64	355	-455.78	118.62	267.27	-542.28	76.162	300.28	-533.52	45.242	270.05	-536.25	43.796	335.26	-367.1	38.927	384.23	-329.48	39.152	264.15	-267.31	56.265	312.7	-349.16	699.02	78.357	-236.45	641.67	79.27	-306.08	620.57	88.73	-284.26	717.9	67.119	-247.25	546.24	93.361	-230.78	532.53	219.85	-394.81	422.3	107.38	-370.17	314.35	100.31	-422.53	349.83	113.65	-342.78	385.91	93.318	-459.51	186.44	122.26	-440.35	192.51	212.5	-535.71	188.2	174.48	-537.82	163.81	208.96	-546.05	161.84	147.42	-388.04	78.068	96.423	-345.48	74.329	207.12	-294.53	62.133	154.68	-475.87	1558.9	278.25	-550.15	1299.9	258.95
218	0.90417	-284.68	1290.6	262.42	-410.33	1513.5	445.52	-429.65	1503.2	96.411	-405.78	1840.2	256.93	-316.27	1001.5	401.65	-314.24	1019.3	151.14	-527.12	1039.8	294.99	-517.51	1042.5	215.12	-408.38	922.81	458.9	-420.22	933.32	79.439	-402.11	1094.2	441.35	-413.76	1102.3	105.44	-543.93	999.82	254.55	-405.91	663.42	437.73	-330.96	581.64	402.27	-405.91	573.45	421.82	-321.24	689.58	427.68	-381.47	504.99	407.97	-405.94	503.34	282.13	-469.94	284.18	399.03	-409.81	203.94	352	-475.7	215.23	380.03	-406.97	272.51	378.69	-472.43	103.76	354.87	-455.64	118.75	267.19	-542.24	76.317	300.15	-533.51	45.304	269.96	-536.19	43.959	335.19	-367.07	38.917	384.21	-329.45	39.083	264.12	-267.23	56.096	312.72	-342.8	699.45	78.4	-229.79	642.69	79.651	-299.34	621.22	88.866	-278.02	718.65	67.372	-239.99	547.08	93.703	-223.56	533.65	220.12	-385.08	419.87	107.25	-358.09	312.46	100.39	-411.22	346.82	113.58	-332.26	384.58	93.361	-444.44	182.41	122.15	-425.52	188.98	212.42	-520.83	182.43	174.3	-522.33	158.01	208.77	-530.46	155.82	147.27	-370.41	75.693	96.455	-327.82	73.07	207.23	-276.59	62.006	154.83	-470.55	1559	278.47	-545.02	1300	259.26
219	0.90833	-279.64	1290.5	262.32	-404.74	1513.5	445.59	-424.68	1503.3	96.518	-400.56	1840.2	257	-311.59	1001.3	401.87	-309.18	1019.3	151.32	-522.22	1039.8	294.8	-512.52	1042.5	214.94	-404.03	922.76	458.86	-414.93	933.39	79.403	-397.32	1094.2	441.39	-408.65	1102.3	105.42	-538.98	999.84	254.34	-403.56	663.56	437.67	-329.19	581.18	402.4	-404.22	573.56	421.92	-318.67	689.06	427.7	-380.4	504.86	408.12	-404.61	503.33	282.19	-469.57	284.37	398.93	-409.52	203.94	352.07	-475.46	215.42	379.89	-406.56	272.51	378.78	-472.3	103.88	354.74	-455.48	118.87	267.1	-542.19	76.462	300.02	-533.48	45.368	269.88	-536.13	44.121	335.11	-367.05	38.907	384.19	-329.41	39.014	264.09	-267.16	55.924	312.74	-336.55	699.81	78.476	-223.26	643.6	80.031	-292.73	621.78	89.03	-271.89	719.31	67.63	-232.85	547.83	94.043	-216.43	534.68	220.39	-375.38	417.38	107.17	-346.02	310.57	100.46	-399.9	343.78	113.54	-321.79	383.24	93.401	-429.27	178.43	122.02	-410.58	185.47	212.3	-505.81	176.7	174.11	-506.7	152.24	208.56	-514.73	149.85	147.11	-352.73	73.432	96.425	-310.13	71.89	207.28	-258.65	61.979	154.89	-465.21	1559.1	278.68	-539.89	1300.1	259.57
220	0.9125	-274.61	1290.3	262.21	-399.15	1513.4	445.65	-419.7	1503.3	96.613	-395.35	1840.1	257.07	-306.89	1001.1	402.07	-304.12	1019.3	151.49	-517.32	1039.8	294.63	-507.53	1042.4	214.78	-399.66	922.67	458.82	-409.68	933.4	79.371	-392.5	1094.1	441.43	-403.56	1102.3	105.39	-534.05	999.82	254.15	-401.2	663.69	437.62	-327.4	580.72	402.51	-402.51	573.68	422.01	-316.09	688.53	427.7	-379.31	504.72	408.26	-403.28	503.33	282.25	-469.18	284.56	398.84	-409.22	203.95	352.13	-475.2	215.6	379.74	-406.15	272.5	378.87	-472.16	104	354.61	-455.31	118.98	267.01	-542.11	76.596	299.89	-533.42	45.432	269.81	-536.07	44.282	335.03	-367.03	38.896	384.18	-329.38	38.944	264.07	-267.08	55.75	312.76	-330.42	700.09	78.586	-216.87	644.4	80.407	-286.24	622.25	89.222	-265.86	719.88	67.891	-225.84	548.5	94.382	-209.41	535.63	220.66	-365.7	414.84	107.14	-333.97	308.71	100.5	-388.58	340.71	113.52	-311.37	381.88	93.438	-414.03	174.52	121.86	-395.54	182	212.16	-490.65	171.03	173.91	-490.92	146.54	208.32	-498.86	143.96	146.93	-335.02	71.295	96.336	-292.43	70.798	207.27	-240.72	62.061	154.88	-459.88	1559.1	278.87	-534.76	1300.2	259.85
221	0.91667	-269.59	1290.1	262.1	-393.55	1513.3	445.7	-414.71	1503.2	96.697	-390.13	1840	257.13	-302.17	1000.8	402.24	-299.08	1019.2	151.64	-512.41	1039.8	294.46	-502.55	1042.3	214.62	-395.27	922.55	458.78	-404.45	933.35	79.344	-387.66	1094	441.45	-398.5	1102.2	105.35	-529.11	999.75	253.98	-398.8	663.8	437.56	-325.59	580.25	402.62	-400.76	573.78	422.11	-313.49	687.99	427.69	-378.2	504.58	408.39	-401.93	503.31	282.3	-468.78	284.76	398.74	-408.91	203.95	352.19	-474.93	215.79	379.6	-405.73	272.5	378.95	-472.03	104.13	354.48	-455.12	119.09	266.91	-542.01	76.72	299.77	-533.33	45.497	269.75	-536	44.442	334.95	-367	38.883	384.15	-329.35	38.874	264.04	-267.01	55.574	312.79	-324.4	700.29	78.726	-210.61	645.1	80.78	-279.89	622.62	89.438	-259.95	720.35	68.148	-218.95	549.09	94.719	-202.5	536.49	220.93	-356.05	412.26	107.15	-321.95	306.86	100.52	-377.25	337.64	113.52	-301	380.51	93.472	-398.7	170.68	121.68	-380.41	178.58	211.99	-475.36	165.43	173.69	-475	140.9	208.07	-482.84	138.14	146.72	-317.28	69.288	96.194	-274.72	69.804	207.19	-222.8	62.26	154.8	-454.53	1559	279.06	-529.63	1300.2	260.13
